<?xml version="1.0" encoding="UTF-8" standalone="no"?>
<!-- Created with Inkscape (http://www.inkscape.org/) -->

<svg
   width="119.89661mm"
   height="122.15659mm"
   viewBox="0 0 119.89661 122.15659"
   version="1.1"
   id="svg1"
   xml:space="preserve"
   xmlns="http://www.w3.org/2000/svg"
   xmlns:svg="http://www.w3.org/2000/svg"><defs
     id="defs1" /><g
     id="layer1"
     transform="translate(-64.570894,-51.51768)"><rect
       style="fill:#ffffff;fill-opacity:1;stroke:#000000;stroke-width:1;stroke-linecap:round;stroke-linejoin:bevel;stroke-dasharray:none;stroke-opacity:1"
       id="rect6"
       width="109.86554"
       height="112.55143"
       x="69.833038"
       y="56.275711"
       ry="11.766742"
       rx="10.999342" /><path
       id="path6"
       style="fill:#000000"
       d="m 124.69077,51.517778 c -20.5201,-0.0055 -41.0779,0.225972 -42.75346,0.699699 -8.24014,2.329714 -14.19504,8.185659 -16.52974,16.254822 -1.05533,3.647435 -1.14102,84.985011 -0.093,88.304171 2.89132,9.15712 10.14514,15.53083 18.95905,16.65945 2.40607,0.30814 77.19481,0.32212 79.68816,0.015 9.32756,-1.14905 16.96317,-7.50873 19.71559,-16.42173 0.91676,-2.96871 1.1028,-83.368379 0.20103,-86.865502 -2.42141,-9.390409 -7.78944,-15.166458 -16.6579,-17.923453 -1.52661,-0.474585 -22.0096,-0.716927 -42.52971,-0.722437 z m -0.0723,5.719548 c 19.3212,0.02025 38.59882,0.223169 40.03166,0.589628 7.12749,1.822902 12.06746,6.965221 13.67204,14.232723 0.83885,3.79825 0.84289,77.766863 0.005,81.263253 -1.92563,8.03257 -8.65014,13.59777 -17.32401,14.3366 h -5.2e-4 c -4.63932,0.39517 -73.0191,0.26537 -74.87708,-0.14211 -8.32701,-1.8262 -13.63859,-6.45816 -15.46211,-13.48393 -0.86822,-3.34519 -0.85537,-79.575417 0.014,-82.673512 1.98744,-7.082829 7.03945,-12.123123 13.64826,-13.617257 1.60682,-0.363269 20.97194,-0.525648 40.29315,-0.505395 z m 24.799,4.771285 c -22.24218,-0.130138 -63.61865,0.3192 -65.23064,0.91674 -4.64012,1.720013 -7.14884,4.4521 -8.35195,9.095052 -0.77984,3.00952 -0.73842,78.245157 0.0444,80.735637 1.6148,5.13711 5.31071,8.66544 10.18698,9.72499 2.49104,0.54131 74.67131,0.55862 77.21906,0.0186 4.77581,-1.01229 8.91855,-5.30116 10.1446,-10.50221 0.72323,-3.06801 0.59161,-76.93598 -0.14211,-79.752752 -1.37352,-5.273001 -5.13563,-8.927688 -10.18749,-9.896553 -0.98066,-0.188074 -6.26883,-0.296135 -13.68289,-0.339514 z m 15.51843,8.50439 0.0419,6.033224 c 0.0232,3.318346 0.1325,6.518849 0.24288,7.112227 0.23518,1.264274 0.0191,1.557463 -6.31744,8.578284 -11.82672,13.103804 -19.70507,21.172334 -22.24826,22.785174 -0.60718,0.38507 -1.36806,1.07144 -1.69137,1.52549 -0.32331,0.45405 -1.24931,1.36396 -2.05724,2.0221 -0.80792,0.65813 -2.05949,1.93824 -2.78174,2.84427 -0.72225,0.90603 -1.40326,1.68064 -1.51308,1.72134 -0.10983,0.0407 -0.27879,-3.09831 -0.37569,-6.97528 -0.2034,-8.13715 -0.82205,-6.50578 4.70514,-12.41371 1.76984,-1.89177 3.97601,-4.273034 4.90254,-5.291674 0.92652,-1.01865 3.48795,-3.75709 5.69216,-6.08542 6.84033,-7.22553 9.13277,-9.724581 9.13277,-9.95701 0,-0.12324 -5.56618,-0.254668 -12.36927,-0.292488 l -12.36927,-0.06925 -0.0718,-5.537129 c -0.0394,-3.045623 0.0228,-5.632316 0.1385,-5.74797 0.11566,-0.115655 8.47419,-0.219444 18.57457,-0.230994 z m -45.0758,0.09663 v 5.616195 5.615678 l -1.78594,0.168982 c -0.98226,0.09277 -6.04243,0.169532 -11.24479,0.170532 l -9.45885,0.0015 v 1.288348 c 0,1.283154 -0.004,1.289281 -0.99219,1.452625 -0.5457,0.0902 -3.40321,0.165315 -6.35,0.166915 l -5.35781,0.0026 V 77.86554 70.637557 l 17.59479,-0.01395 z m -35.18958,20.83335 h 17.34313 17.34364 l -0.0796,5.75469 -0.0791,5.754689 -17.26406,0.0682 -17.26406,0.0682 v -5.822899 z m 0,17.727599 h 6.32054 c 4.88664,0 6.31764,0.075 6.30814,0.33073 -0.007,0.1819 0.007,0.83523 0.0295,1.45211 l 0.0419,1.12138 11.17864,0.0692 11.17865,0.0687 0.0713,5.49011 0.0713,5.49062 H 102.27053 84.67057 v -7.01146 z m 58.24399,2.9099 h 10.93215 10.93163 l 0.11576,5.4901 c 0.0638,3.01955 0.10724,5.504 0.0966,5.5206 -0.23129,0.36145 -31.90141,0.17162 -31.90141,-0.1912 0,-0.57417 7.49845,-7.50305 9.82524,-10.8195 z m 1.8836,31.46526 c -3.16114,1.09728 -5.57935,3.25936 -5.71644,5.06843 l -0.21911,2.89129 c 9.62362,-0.0191 19.28051,-0.071 28.89074,0.001 0.18623,0.0315 -8.53204,1.61149 -19.37453,3.51089 -10.84248,1.89943 -20.8205,4.13336 -23.08541,4.13309 -2.76431,-3.4e-4 -16.1338,-3.06414 -19.45721,-3.64578 -8.08229,-1.41452 -18.81256,-3.02947 -23.42596,-3.89072 -0.1399,-0.0262 5.14486,-0.0702 11.74347,-0.0982 14.43539,-0.0611 13.20321,0.13334 13.17026,-2.07998 -0.0384,-2.57199 -4.22869,-5.85804 -4.22869,-5.85804 4.61313,-0.0145 41.70288,-0.032 41.70288,-0.032 z" /><path
       style="fill:#ffffff;fill-opacity:1;stroke:#000000;stroke-width:1;stroke-linecap:round;stroke-linejoin:bevel;stroke-dasharray:none;stroke-opacity:1"
       d="m 90.076736,129.05572 h 69.728074 l -10.85262,8.32034 H 99.663214 Z"
       id="path7" /></g></svg>
